<svg width="4524" height="4480" viewBox="0 0 4524 4480" fill="none" xmlns="http://www.w3.org/2000/svg">
<path d="M2262 0L2397.16 1394.93L2961 109.633L2654.25 1477.65L3591.57 427.802L2872.95 1635L4092 923.361L3031.84 1851.56L4413.29 1547.8L3115.37 2106.15L4524 2240L3115.37 2373.85L4413.29 2932.2L3031.84 2628.44L4092 3556.64L2872.95 2845L3591.57 4052.2L2654.25 3002.35L2961 4370.37L2397.16 3085.07L2262 4480L2126.84 3085.07L1563 4370.37L1869.75 3002.35L932.43 4052.2L1651.05 2845L432.004 3556.64L1492.16 2628.44L110.71 2932.2L1408.63 2373.85L0 2240L1408.63 2106.15L110.71 1547.8L1492.16 1851.56L432.004 923.361L1651.05 1635L932.43 427.802L1869.75 1477.65L1563 109.633L2126.84 1394.93L2262 0Z" fill="white"/>
</svg>
